<?xml version="1.0" standalone="no"?>
<!DOCTYPE svg PUBLIC "-//W3C//DTD SVG 20010904//EN"
 "http://www.w3.org/TR/2001/REC-SVG-20010904/DTD/svg10.dtd">
<svg version="1.0" xmlns="http://www.w3.org/2000/svg"
 width="512.000000pt" height="512.000000pt" viewBox="0 0 512.000000 512.000000"
 preserveAspectRatio="xMidYMid meet">
<metadata>
Created by potrace 1.14, written by Peter Selinger 2001-2017
</metadata>
<g transform="translate(0.000000,512.000000) scale(0.100000,-0.100000)"
fill="#000000" stroke="none">
<path d="M3315 4046 c-68 -29 -109 -85 -171 -230 -13 -31 -64 -207 -64 -221 0
-2 -30 -14 -67 -26 -54 -18 -92 -23 -183 -23 -119 -1 -255 10 -355 28 -16 3
-48 8 -70 11 -49 7 -115 16 -135 20 -201 34 -734 41 -910 10 -14 -2 -45 -6
-70 -9 -86 -11 -115 -16 -190 -32 -553 -119 -900 -388 -1035 -800 -14 -43 -27
-89 -30 -103 -2 -14 -7 -39 -11 -54 -13 -61 -15 -87 -18 -237 -3 -133 9 -288
28 -375 13 -63 20 -87 43 -160 14 -44 43 -118 64 -164 145 -314 444 -569 717
-611 72 -11 572 -7 627 5 55 12 80 29 83 57 7 56 -115 110 -366 163 -115 24
-135 31 -142 50 -5 13 -7 31 -5 41 2 11 4 25 4 31 1 19 46 45 86 50 20 3 79
-4 133 -16 134 -28 145 -30 247 -38 162 -13 528 -6 648 12 12 2 43 6 68 9 59
9 93 14 154 26 97 20 157 -22 264 -182 80 -119 125 -166 181 -192 42 -19 65
-21 359 -22 172 -1 321 1 331 3 47 12 29 70 -32 107 -24 14 -94 42 -155 62
-196 62 -192 106 23 314 291 281 366 327 614 381 550 118 890 353 1034 711 34
88 46 142 53 258 4 69 10 101 23 118 27 34 35 95 16 129 -37 67 -98 115 -239
186 -116 60 -120 61 -318 128 -164 54 -316 96 -493 134 -106 23 -139 29 -236
40 -13 1 -26 7 -28 13 -13 39 -157 239 -213 295 -99 100 -190 135 -264 103z"/>
</g>
</svg>
